<svg width="22" height="22" viewBox="0 0 22 22" fill="none" xmlns="http://www.w3.org/2000/svg">
<path d="M10.7543 1C5.36713 1 1 5.36713 1 10.7543C1 16.1413 5.36713 20.5085 10.7543 20.5085C16.1413 20.5085 20.5085 16.1413 20.5085 10.7543C20.5085 5.36713 16.1413 1 10.7543 1Z" stroke="white" stroke-width="2" stroke-linecap="round" stroke-linejoin="round"/>
<path d="M3.21521 16.944C3.21521 16.944 5.38945 14.1682 10.7543 14.1682C16.1191 14.1682 18.2934 16.944 18.2934 16.944" stroke="white" stroke-width="2" stroke-linecap="round" stroke-linejoin="round"/>
<path d="M10.7543 10.7542C12.3705 10.7542 13.6806 9.44407 13.6806 7.82789C13.6806 6.21175 12.3705 4.90161 10.7543 4.90161C9.1381 4.90161 7.828 6.21175 7.828 7.82789C7.828 9.44407 9.1381 10.7542 10.7543 10.7542Z" stroke="white" stroke-width="2" stroke-linecap="round" stroke-linejoin="round"/>
</svg>
