<svg width="26" height="23" viewBox="0 0 26 23" fill="none" xmlns="http://www.w3.org/2000/svg">
<path d="M2.29459 1H23.0082C23.7232 1 24.3028 1.52772 24.3028 2.17875L24.3031 4.04827C24.3032 4.36101 24.1667 4.66094 23.9239 4.88206L15.6197 12.4437C15.377 12.6648 15.2405 12.9647 15.2405 13.2773V20.7103C15.2405 21.4773 14.449 22.0401 13.632 21.854L11.0428 21.2646C10.4664 21.1334 10.0622 20.6618 10.0622 20.1208V13.2773C10.0622 12.9647 9.92576 12.6648 9.68298 12.4437L1.37917 4.88199C1.13639 4.66091 1 4.36105 1 4.04839V2.1789C1 1.52782 1.5796 1 2.29459 1Z" stroke="#404040" stroke-width="2" stroke-linecap="round" stroke-linejoin="round"/>
</svg>
